<svg class="dg dg-fbs" viewBox="0 0 1338 500" xmlns="http://www.w3.org/2000/svg" role="img" aria-label="Arbre fonctionnel (FBS)" width="1338" height="500"><style>.dg{--bg:#EEF1F0;--surface:#FFFFFF;--ink:#15202A;--muted:#56636E;--line:#D3DAD9;--line-strong:#9AA6AD;--grp:#F3F6F6;--accent:#0E6A86;--c-in:#2E7D4F;--c-out:#0E6A86;--c-res:#B07A12;--c-con:#B0413E;--sec:#7C8891;--ext:#2B3A47;--ext-ink:#F2F5F6;--f-elec:#C27F0E;--f-data:#0E6A86;--f-mech:#5E6A73;--f-rf:#7456A6;--fn:#E3EEF1}
.dg{font-family:var(--font-body,'IBM Plex Sans',Arial,sans-serif);display:block}
.dg text{fill:var(--ink)}
.dg .bgr{fill:var(--surface)}
.dg .n{fill:var(--surface);stroke:var(--line-strong);stroke-width:1.2}
.dg .n.sys{fill:var(--ink);stroke:var(--ink)}
.dg .n.sys+text,.dg .t-sys{fill:var(--surface)}
.dg .n.fn{fill:var(--fn);stroke:var(--accent);stroke-width:1.4}
.dg .n.ext{fill:var(--ext);stroke:var(--ext)}
.dg .t-ext{fill:var(--ext-ink)}
.dg .n.sec{stroke:var(--sec);stroke-dasharray:5 4}
.dg .t2{fill:var(--muted);font-weight:400}
.dg .t-sys .t2,.dg .t-ext .t2{fill:inherit;opacity:.8}
.dg .t1{font-weight:600}
.dg .e{fill:none;stroke-width:1.6;stroke-linejoin:round}
.dg .e.tree{stroke:var(--line-strong);stroke-width:1.3}
.dg .e.dash{stroke-dasharray:5 4}
.dg .lbg{fill:var(--surface);opacity:.94}
.dg .lt{font-size:10.5px;fill:var(--muted)}
.dg .grp{fill:var(--grp);stroke:var(--line)}
.dg .grp-t{font-family:var(--font-mono,'IBM Plex Mono',monospace);font-size:10px;font-weight:600;letter-spacing:.08em;fill:var(--muted)}
.dg .bnd{fill:none;stroke:var(--ink);stroke-width:1.5;stroke-dasharray:9 5}
.dg .bnd-t{font-family:var(--font-mono,'IBM Plex Mono',monospace);font-size:11px;font-weight:600;letter-spacing:.06em;fill:var(--ink)}
.dg .lg{font-size:11.5px;fill:var(--ink)}
.dg .note{font-size:11px;fill:var(--muted);font-style:italic}
.dg .zone{font-family:var(--font-mono,'IBM Plex Mono',monospace);font-size:15px;font-weight:600;letter-spacing:.12em;fill:var(--ink)}
.dg .e.c-in{stroke:var(--c-in)}.dg .mk.c-in{fill:var(--c-in)}.dg .n.c-in{stroke:var(--c-in);stroke-width:2}.dg .e.c-out{stroke:var(--c-out)}.dg .mk.c-out{fill:var(--c-out)}.dg .n.c-out{stroke:var(--c-out);stroke-width:2}.dg .e.c-res{stroke:var(--c-res)}.dg .mk.c-res{fill:var(--c-res)}.dg .n.c-res{stroke:var(--c-res);stroke-width:2}.dg .e.c-con{stroke:var(--c-con)}.dg .mk.c-con{fill:var(--c-con)}.dg .n.c-con{stroke:var(--c-con);stroke-width:2}.dg .e.sec{stroke:var(--sec)}.dg .mk.sec{fill:var(--sec)}.dg .n.sec{stroke:var(--sec);stroke-width:2}.dg .e.f-elec{stroke:var(--f-elec)}.dg .mk.f-elec{fill:var(--f-elec)}.dg .n.f-elec{stroke:var(--f-elec);stroke-width:2}.dg .e.f-data{stroke:var(--f-data)}.dg .mk.f-data{fill:var(--f-data)}.dg .n.f-data{stroke:var(--f-data);stroke-width:2}.dg .e.f-mech{stroke:var(--f-mech)}.dg .mk.f-mech{fill:var(--f-mech)}.dg .n.f-mech{stroke:var(--f-mech);stroke-width:2}.dg .e.f-rf{stroke:var(--f-rf)}.dg .mk.f-rf{fill:var(--f-rf)}.dg .n.f-rf{stroke:var(--f-rf);stroke-width:2}</style><rect class="bgr" width="1338" height="500"/><defs><marker id="m-fbs-c-in" viewBox="0 0 10 10" refX="9.5" refY="5" markerWidth="7" markerHeight="7" orient="auto-start-reverse"><path class="mk c-in" d="M0,0 L10,5 L0,10 z"/></marker><marker id="m-fbs-c-out" viewBox="0 0 10 10" refX="9.5" refY="5" markerWidth="7" markerHeight="7" orient="auto-start-reverse"><path class="mk c-out" d="M0,0 L10,5 L0,10 z"/></marker><marker id="m-fbs-c-res" viewBox="0 0 10 10" refX="9.5" refY="5" markerWidth="7" markerHeight="7" orient="auto-start-reverse"><path class="mk c-res" d="M0,0 L10,5 L0,10 z"/></marker><marker id="m-fbs-c-con" viewBox="0 0 10 10" refX="9.5" refY="5" markerWidth="7" markerHeight="7" orient="auto-start-reverse"><path class="mk c-con" d="M0,0 L10,5 L0,10 z"/></marker><marker id="m-fbs-sec" viewBox="0 0 10 10" refX="9.5" refY="5" markerWidth="7" markerHeight="7" orient="auto-start-reverse"><path class="mk sec" d="M0,0 L10,5 L0,10 z"/></marker><marker id="m-fbs-f-elec" viewBox="0 0 10 10" refX="9.5" refY="5" markerWidth="7" markerHeight="7" orient="auto-start-reverse"><path class="mk f-elec" d="M0,0 L10,5 L0,10 z"/></marker><marker id="m-fbs-f-data" viewBox="0 0 10 10" refX="9.5" refY="5" markerWidth="7" markerHeight="7" orient="auto-start-reverse"><path class="mk f-data" d="M0,0 L10,5 L0,10 z"/></marker><marker id="m-fbs-f-mech" viewBox="0 0 10 10" refX="9.5" refY="5" markerWidth="7" markerHeight="7" orient="auto-start-reverse"><path class="mk f-mech" d="M0,0 L10,5 L0,10 z"/></marker><marker id="m-fbs-f-rf" viewBox="0 0 10 10" refX="9.5" refY="5" markerWidth="7" markerHeight="7" orient="auto-start-reverse"><path class="mk f-rf" d="M0,0 L10,5 L0,10 z"/></marker></defs><g transform="translate(0,0)"><polyline class="e tree" points="669,70 669,106 95,106 95,134"/><polyline class="e tree" points="29,186 29,236 40,236"/><polyline class="e tree" points="29,186 29,290 40,290"/><polyline class="e tree" points="29,186 29,344 40,344"/><polyline class="e tree" points="29,186 29,398 40,398"/><polyline class="e tree" points="669,70 669,106 259,106 259,134"/><polyline class="e tree" points="193,186 193,236 204,236"/><polyline class="e tree" points="193,186 193,290 204,290"/><polyline class="e tree" points="193,186 193,344 204,344"/><polyline class="e tree" points="193,186 193,398 204,398"/><polyline class="e tree" points="669,70 669,106 423,106 423,134"/><polyline class="e tree" points="357,186 357,236 368,236"/><polyline class="e tree" points="357,186 357,290 368,290"/><polyline class="e tree" points="357,186 357,344 368,344"/><polyline class="e tree" points="357,186 357,398 368,398"/><polyline class="e tree" points="357,186 357,452 368,452"/><polyline class="e tree" points="669,70 669,106 587,106 587,134"/><polyline class="e tree" points="521,186 521,236 532,236"/><polyline class="e tree" points="521,186 521,290 532,290"/><polyline class="e tree" points="521,186 521,344 532,344"/><polyline class="e tree" points="521,186 521,398 532,398"/><polyline class="e tree" points="669,70 669,106 751,106 751,134"/><polyline class="e tree" points="685,186 685,236 696,236"/><polyline class="e tree" points="685,186 685,290 696,290"/><polyline class="e tree" points="685,186 685,344 696,344"/><polyline class="e tree" points="685,186 685,398 696,398"/><polyline class="e tree" points="685,186 685,452 696,452"/><polyline class="e tree" points="669,70 669,106 915,106 915,134"/><polyline class="e tree" points="849,186 849,236 860,236"/><polyline class="e tree" points="849,186 849,290 860,290"/><polyline class="e tree" points="849,186 849,344 860,344"/><polyline class="e tree" points="849,186 849,398 860,398"/><polyline class="e tree" points="669,70 669,106 1079,106 1079,134"/><polyline class="e tree" points="1013,186 1013,236 1024,236"/><polyline class="e tree" points="1013,186 1013,290 1024,290"/><polyline class="e tree" points="1013,186 1013,344 1024,344"/><polyline class="e tree" points="1013,186 1013,398 1024,398"/><polyline class="e tree" points="1013,186 1013,452 1024,452"/><polyline class="e tree" points="669,70 669,106 1243,106 1243,134"/><polyline class="e tree" points="1177,186 1177,236 1188,236"/><polyline class="e tree" points="1177,186 1177,290 1188,290"/><polyline class="e tree" points="1177,186 1177,344 1188,344"/><polyline class="e tree" points="1177,186 1177,398 1188,398"/><rect class="n sys" x="489.0" y="18.0" width="360" height="52" rx="8"/><text x="669" y="34.4" font-size="15" text-anchor="middle" dominant-baseline="central" class="t-sys" font-weight="600"><tspan x="669" dy="0" class="">F0  Livrer un colis par drone</tspan><tspan x="669" dy="19.2" class="">en milieu urbain</tspan></text><rect class="n fn" x="20.0" y="134.0" width="150" height="52" rx="8"/><text x="95" y="160.0" font-size="12.5" text-anchor="middle" dominant-baseline="central" class="" font-weight="600"><tspan x="95" dy="0" class="">F1  Gérer la mission</tspan></text><rect class="n sub" x="40.0" y="214.0" width="130" height="44" rx="6"/><text x="105" y="228.96" font-size="11" text-anchor="middle" dominant-baseline="central" class=""><tspan x="105" dy="0" class="">1.1  Recevoir l&#x27;ordre</tspan><tspan x="105" dy="14.08" class="">de livraison</tspan></text><rect class="n sub" x="40.0" y="268.0" width="130" height="44" rx="6"/><text x="105" y="282.96" font-size="11" text-anchor="middle" dominant-baseline="central" class=""><tspan x="105" dy="0" class="">1.2  Planifier la</tspan><tspan x="105" dy="14.08" class="">trajectoire</tspan></text><rect class="n sub" x="40.0" y="322.0" width="130" height="44" rx="6"/><text x="105" y="336.96" font-size="11" text-anchor="middle" dominant-baseline="central" class=""><tspan x="105" dy="0" class="">1.3  Obtenir l&#x27;autorisation</tspan><tspan x="105" dy="14.08" class="">de vol</tspan></text><rect class="n sub" x="40.0" y="376.0" width="130" height="44" rx="6"/><text x="105" y="390.96" font-size="11" text-anchor="middle" dominant-baseline="central" class=""><tspan x="105" dy="0" class="">1.4  Suivre et rendre</tspan><tspan x="105" dy="14.08" class="">compte de la mission</tspan></text><rect class="n fn" x="184.0" y="134.0" width="150" height="52" rx="8"/><text x="259" y="160.0" font-size="12.5" text-anchor="middle" dominant-baseline="central" class="" font-weight="600"><tspan x="259" dy="0" class="">F2  Gérer le colis</tspan></text><rect class="n sub" x="204.0" y="214.0" width="130" height="44" rx="6"/><text x="269" y="228.96" font-size="11" text-anchor="middle" dominant-baseline="central" class=""><tspan x="269" dy="0" class="">2.1  Accueillir et</tspan><tspan x="269" dy="14.08" class="">verrouiller le colis</tspan></text><rect class="n sub" x="204.0" y="268.0" width="130" height="44" rx="6"/><text x="269" y="282.96" font-size="11" text-anchor="middle" dominant-baseline="central" class=""><tspan x="269" dy="0" class="">2.2  Mesurer la masse</tspan><tspan x="269" dy="14.08" class="">du colis</tspan></text><rect class="n sub" x="204.0" y="322.0" width="130" height="44" rx="6"/><text x="269" y="336.96" font-size="11" text-anchor="middle" dominant-baseline="central" class=""><tspan x="269" dy="0" class="">2.3  Maintenir le colis</tspan><tspan x="269" dy="14.08" class="">pendant le vol</tspan></text><rect class="n sub" x="204.0" y="376.0" width="130" height="44" rx="6"/><text x="269" y="390.96" font-size="11" text-anchor="middle" dominant-baseline="central" class=""><tspan x="269" dy="0" class="">2.4  Déposer le colis</tspan><tspan x="269" dy="14.08" class="">au destinataire</tspan></text><rect class="n fn" x="348.0" y="134.0" width="150" height="52" rx="8"/><text x="423" y="152.0" font-size="12.5" text-anchor="middle" dominant-baseline="central" class="" font-weight="600"><tspan x="423" dy="0" class="">F3  Se déplacer</tspan><tspan x="423" dy="16.0" class="">dans l&#x27;air</tspan></text><rect class="n sub" x="368.0" y="214.0" width="130" height="44" rx="6"/><text x="433" y="236.0" font-size="11" text-anchor="middle" dominant-baseline="central" class=""><tspan x="433" dy="0" class="">3.1  Générer la poussée</tspan></text><rect class="n sub" x="368.0" y="268.0" width="130" height="44" rx="6"/><text x="433" y="290.0" font-size="11" text-anchor="middle" dominant-baseline="central" class=""><tspan x="433" dy="0" class="">3.2  Contrôler l&#x27;attitude</tspan></text><rect class="n sub" x="368.0" y="322.0" width="130" height="44" rx="6"/><text x="433" y="344.0" font-size="11" text-anchor="middle" dominant-baseline="central" class=""><tspan x="433" dy="0" class="">3.3  Décoller</tspan></text><rect class="n sub" x="368.0" y="376.0" width="130" height="44" rx="6"/><text x="433" y="398.0" font-size="11" text-anchor="middle" dominant-baseline="central" class=""><tspan x="433" dy="0" class="">3.4  Atterrir</tspan></text><rect class="n sub" x="368.0" y="430.0" width="130" height="44" rx="6"/><text x="433" y="444.96" font-size="11" text-anchor="middle" dominant-baseline="central" class=""><tspan x="433" dy="0" class="">3.5  Supporter les efforts</tspan><tspan x="433" dy="14.08" class="">mécaniques</tspan></text><rect class="n fn" x="512.0" y="134.0" width="150" height="52" rx="8"/><text x="587" y="160.0" font-size="12.5" text-anchor="middle" dominant-baseline="central" class="" font-weight="600"><tspan x="587" dy="0" class="">F4  Naviguer</tspan></text><rect class="n sub" x="532.0" y="214.0" width="130" height="44" rx="6"/><text x="597" y="236.0" font-size="11" text-anchor="middle" dominant-baseline="central" class=""><tspan x="597" dy="0" class="">4.1  Se localiser</tspan></text><rect class="n sub" x="532.0" y="268.0" width="130" height="44" rx="6"/><text x="597" y="282.96" font-size="11" text-anchor="middle" dominant-baseline="central" class=""><tspan x="597" dy="0" class="">4.2  Percevoir</tspan><tspan x="597" dy="14.08" class="">l&#x27;environnement</tspan></text><rect class="n sub" x="532.0" y="322.0" width="130" height="44" rx="6"/><text x="597" y="336.96" font-size="11" text-anchor="middle" dominant-baseline="central" class=""><tspan x="597" dy="0" class="">4.3  Détecter et éviter</tspan><tspan x="597" dy="14.08" class="">les obstacles</tspan></text><rect class="n sub" x="532.0" y="376.0" width="130" height="44" rx="6"/><text x="597" y="398.0" font-size="11" text-anchor="middle" dominant-baseline="central" class=""><tspan x="597" dy="0" class="">4.4  Suivre la trajectoire</tspan></text><rect class="n fn" x="676.0" y="134.0" width="150" height="52" rx="8"/><text x="751" y="160.0" font-size="12.5" text-anchor="middle" dominant-baseline="central" class="" font-weight="600"><tspan x="751" dy="0" class="">F5  Communiquer</tspan></text><rect class="n sub" x="696.0" y="214.0" width="130" height="44" rx="6"/><text x="761" y="228.96" font-size="11" text-anchor="middle" dominant-baseline="central" class=""><tspan x="761" dy="0" class="">5.1  Échanger avec</tspan><tspan x="761" dy="14.08" class="">la supervision</tspan></text><rect class="n sub" x="696.0" y="268.0" width="130" height="44" rx="6"/><text x="761" y="282.96" font-size="11" text-anchor="middle" dominant-baseline="central" class=""><tspan x="761" dy="0" class="">5.2  Échanger avec</tspan><tspan x="761" dy="14.08" class="">l&#x27;U-space (UTM)</tspan></text><rect class="n sub" x="696.0" y="322.0" width="130" height="44" rx="6"/><text x="761" y="336.96" font-size="11" text-anchor="middle" dominant-baseline="central" class=""><tspan x="761" dy="0" class="">5.3  Interagir avec</tspan><tspan x="761" dy="14.08" class="">le destinataire</tspan></text><rect class="n sub" x="696.0" y="376.0" width="130" height="44" rx="6"/><text x="761" y="390.96" font-size="11" text-anchor="middle" dominant-baseline="central" class=""><tspan x="761" dy="0" class="">5.4  S&#x27;identifier</tspan><tspan x="761" dy="14.08" class="">à distance</tspan></text><rect class="n sub" x="696.0" y="430.0" width="130" height="44" rx="6"/><text x="761" y="444.96" font-size="11" text-anchor="middle" dominant-baseline="central" class=""><tspan x="761" dy="0" class="">5.5  Se rendre visible</tspan><tspan x="761" dy="14.08" class="">et audible</tspan></text><rect class="n fn" x="840.0" y="134.0" width="150" height="52" rx="8"/><text x="915" y="160.0" font-size="12.5" text-anchor="middle" dominant-baseline="central" class="" font-weight="600"><tspan x="915" dy="0" class="">F6  Gérer l&#x27;énergie</tspan></text><rect class="n sub" x="860.0" y="214.0" width="130" height="44" rx="6"/><text x="925" y="228.96" font-size="11" text-anchor="middle" dominant-baseline="central" class=""><tspan x="925" dy="0" class="">6.1  Recevoir l&#x27;énergie</tspan><tspan x="925" dy="14.08" class="">de recharge</tspan></text><rect class="n sub" x="860.0" y="268.0" width="130" height="44" rx="6"/><text x="925" y="290.0" font-size="11" text-anchor="middle" dominant-baseline="central" class=""><tspan x="925" dy="0" class="">6.2  Stocker l&#x27;énergie</tspan></text><rect class="n sub" x="860.0" y="322.0" width="130" height="44" rx="6"/><text x="925" y="336.96" font-size="11" text-anchor="middle" dominant-baseline="central" class=""><tspan x="925" dy="0" class="">6.3  Surveiller l&#x27;état</tspan><tspan x="925" dy="14.08" class="">de la batterie</tspan></text><rect class="n sub" x="860.0" y="376.0" width="130" height="44" rx="6"/><text x="925" y="398.0" font-size="11" text-anchor="middle" dominant-baseline="central" class=""><tspan x="925" dy="0" class="">6.4  Distribuer l&#x27;énergie</tspan></text><rect class="n fn" x="1004.0" y="134.0" width="150" height="52" rx="8"/><text x="1079" y="160.0" font-size="12.5" text-anchor="middle" dominant-baseline="central" class="" font-weight="600"><tspan x="1079" dy="0" class="">F7  Assurer la sécurité</tspan></text><rect class="n sub" x="1024.0" y="214.0" width="130" height="44" rx="6"/><text x="1089" y="228.96" font-size="11" text-anchor="middle" dominant-baseline="central" class=""><tspan x="1089" dy="0" class="">7.1  Surveiller l&#x27;état</tspan><tspan x="1089" dy="14.08" class="">du système</tspan></text><rect class="n sub" x="1024.0" y="268.0" width="130" height="44" rx="6"/><text x="1089" y="282.96" font-size="11" text-anchor="middle" dominant-baseline="central" class=""><tspan x="1089" dy="0" class="">7.2  Respecter les zones</tspan><tspan x="1089" dy="14.08" class="">de vol (geofencing)</tspan></text><rect class="n sub" x="1024.0" y="322.0" width="130" height="44" rx="6"/><text x="1089" y="336.96" font-size="11" text-anchor="middle" dominant-baseline="central" class=""><tspan x="1089" dy="0" class="">7.3  Gérer les modes</tspan><tspan x="1089" dy="14.08" class="">dégradés</tspan></text><rect class="n sub" x="1024.0" y="376.0" width="130" height="44" rx="6"/><text x="1089" y="390.96" font-size="11" text-anchor="middle" dominant-baseline="central" class=""><tspan x="1089" dy="0" class="">7.4  Limiter la gravité</tspan><tspan x="1089" dy="14.08" class="">d&#x27;une chute</tspan></text><rect class="n sub" x="1024.0" y="430.0" width="130" height="44" rx="6"/><text x="1089" y="444.96" font-size="11" text-anchor="middle" dominant-baseline="central" class=""><tspan x="1089" dy="0" class="">7.5  Protéger des</tspan><tspan x="1089" dy="14.08" class="">intempéries</tspan></text><rect class="n fn" x="1168.0" y="134.0" width="150" height="52" rx="8"/><text x="1243" y="152.0" font-size="12.5" text-anchor="middle" dominant-baseline="central" class="" font-weight="600"><tspan x="1243" dy="0" class="">F8  Permettre</tspan><tspan x="1243" dy="16.0" class="">la maintenance</tspan></text><rect class="n sub" x="1188.0" y="214.0" width="130" height="44" rx="6"/><text x="1253" y="228.96" font-size="11" text-anchor="middle" dominant-baseline="central" class=""><tspan x="1253" dy="0" class="">8.1  Enregistrer les</tspan><tspan x="1253" dy="14.08" class="">données de vol</tspan></text><rect class="n sub" x="1188.0" y="268.0" width="130" height="44" rx="6"/><text x="1253" y="282.96" font-size="11" text-anchor="middle" dominant-baseline="central" class=""><tspan x="1253" dy="0" class="">8.2  Diagnostiquer</tspan><tspan x="1253" dy="14.08" class="">les pannes</tspan></text><rect class="n sub" x="1188.0" y="322.0" width="130" height="44" rx="6"/><text x="1253" y="336.96" font-size="11" text-anchor="middle" dominant-baseline="central" class=""><tspan x="1253" dy="0" class="">8.3  Mettre à jour</tspan><tspan x="1253" dy="14.08" class="">les logiciels</tspan></text><rect class="n sub" x="1188.0" y="376.0" width="130" height="44" rx="6"/><text x="1253" y="390.96" font-size="11" text-anchor="middle" dominant-baseline="central" class=""><tspan x="1253" dy="0" class="">8.4  Permettre l&#x27;échange</tspan><tspan x="1253" dy="14.08" class="">de modules</tspan></text></g></svg>