<svg class="dg dg-tech_en" viewBox="0 0 1505 925" xmlns="http://www.w3.org/2000/svg" role="img" aria-label="Technical interaction diagram" width="1505" height="925"><style>.dg{--bg:#EEF1F0;--surface:#FFFFFF;--ink:#15202A;--muted:#56636E;--line:#D3DAD9;--line-strong:#9AA6AD;--grp:#F3F6F6;--accent:#0E6A86;--c-in:#2E7D4F;--c-out:#0E6A86;--c-res:#B07A12;--c-con:#B0413E;--sec:#7C8891;--ext:#2B3A47;--ext-ink:#F2F5F6;--f-elec:#C27F0E;--f-data:#0E6A86;--f-mech:#5E6A73;--f-rf:#7456A6;--fn:#E3EEF1}
.dg{font-family:var(--font-body,'IBM Plex Sans',Arial,sans-serif);display:block}
.dg text{fill:var(--ink)}
.dg .bgr{fill:var(--surface)}
.dg .n{fill:var(--surface);stroke:var(--line-strong);stroke-width:1.2}
.dg .n.sys{fill:var(--ink);stroke:var(--ink)}
.dg .n.sys+text,.dg .t-sys{fill:var(--surface)}
.dg .n.fn{fill:var(--fn);stroke:var(--accent);stroke-width:1.4}
.dg .n.ext{fill:var(--ext);stroke:var(--ext)}
.dg .t-ext{fill:var(--ext-ink)}
.dg .n.sec{stroke:var(--sec);stroke-dasharray:5 4}
.dg .t2{fill:var(--muted);font-weight:400}
.dg .t-sys .t2,.dg .t-ext .t2{fill:inherit;opacity:.8}
.dg .t1{font-weight:600}
.dg .e{fill:none;stroke-width:1.6;stroke-linejoin:round}
.dg .e.tree{stroke:var(--line-strong);stroke-width:1.3}
.dg .e.dash{stroke-dasharray:5 4}
.dg .lbg{fill:var(--surface);opacity:.94}
.dg .lt{font-size:10.5px;fill:var(--muted)}
.dg .grp{fill:var(--grp);stroke:var(--line)}
.dg .grp-t{font-family:var(--font-mono,'IBM Plex Mono',monospace);font-size:10px;font-weight:600;letter-spacing:.08em;fill:var(--muted)}
.dg .bnd{fill:none;stroke:var(--ink);stroke-width:1.5;stroke-dasharray:9 5}
.dg .bnd-t{font-family:var(--font-mono,'IBM Plex Mono',monospace);font-size:11px;font-weight:600;letter-spacing:.06em;fill:var(--ink)}
.dg .lg{font-size:11.5px;fill:var(--ink)}
.dg .note{font-size:11px;fill:var(--muted);font-style:italic}
.dg .zone{font-family:var(--font-mono,'IBM Plex Mono',monospace);font-size:15px;font-weight:600;letter-spacing:.12em;fill:var(--ink)}
.dg .e.c-in{stroke:var(--c-in)}.dg .mk.c-in{fill:var(--c-in)}.dg .n.c-in{stroke:var(--c-in);stroke-width:2}.dg .e.c-out{stroke:var(--c-out)}.dg .mk.c-out{fill:var(--c-out)}.dg .n.c-out{stroke:var(--c-out);stroke-width:2}.dg .e.c-res{stroke:var(--c-res)}.dg .mk.c-res{fill:var(--c-res)}.dg .n.c-res{stroke:var(--c-res);stroke-width:2}.dg .e.c-con{stroke:var(--c-con)}.dg .mk.c-con{fill:var(--c-con)}.dg .n.c-con{stroke:var(--c-con);stroke-width:2}.dg .e.sec{stroke:var(--sec)}.dg .mk.sec{fill:var(--sec)}.dg .n.sec{stroke:var(--sec);stroke-width:2}.dg .e.f-elec{stroke:var(--f-elec)}.dg .mk.f-elec{fill:var(--f-elec)}.dg .n.f-elec{stroke:var(--f-elec);stroke-width:2}.dg .e.f-data{stroke:var(--f-data)}.dg .mk.f-data{fill:var(--f-data)}.dg .n.f-data{stroke:var(--f-data);stroke-width:2}.dg .e.f-mech{stroke:var(--f-mech)}.dg .mk.f-mech{fill:var(--f-mech)}.dg .n.f-mech{stroke:var(--f-mech);stroke-width:2}.dg .e.f-rf{stroke:var(--f-rf)}.dg .mk.f-rf{fill:var(--f-rf)}.dg .n.f-rf{stroke:var(--f-rf);stroke-width:2}</style><rect class="bgr" width="1505" height="925"/><defs><marker id="m-tech_en-c-in" viewBox="0 0 10 10" refX="9.5" refY="5" markerWidth="7" markerHeight="7" orient="auto-start-reverse"><path class="mk c-in" d="M0,0 L10,5 L0,10 z"/></marker><marker id="m-tech_en-c-out" viewBox="0 0 10 10" refX="9.5" refY="5" markerWidth="7" markerHeight="7" orient="auto-start-reverse"><path class="mk c-out" d="M0,0 L10,5 L0,10 z"/></marker><marker id="m-tech_en-c-res" viewBox="0 0 10 10" refX="9.5" refY="5" markerWidth="7" markerHeight="7" orient="auto-start-reverse"><path class="mk c-res" d="M0,0 L10,5 L0,10 z"/></marker><marker id="m-tech_en-c-con" viewBox="0 0 10 10" refX="9.5" refY="5" markerWidth="7" markerHeight="7" orient="auto-start-reverse"><path class="mk c-con" d="M0,0 L10,5 L0,10 z"/></marker><marker id="m-tech_en-sec" viewBox="0 0 10 10" refX="9.5" refY="5" markerWidth="7" markerHeight="7" orient="auto-start-reverse"><path class="mk sec" d="M0,0 L10,5 L0,10 z"/></marker><marker id="m-tech_en-f-elec" viewBox="0 0 10 10" refX="9.5" refY="5" markerWidth="7" markerHeight="7" orient="auto-start-reverse"><path class="mk f-elec" d="M0,0 L10,5 L0,10 z"/></marker><marker id="m-tech_en-f-data" viewBox="0 0 10 10" refX="9.5" refY="5" markerWidth="7" markerHeight="7" orient="auto-start-reverse"><path class="mk f-data" d="M0,0 L10,5 L0,10 z"/></marker><marker id="m-tech_en-f-mech" viewBox="0 0 10 10" refX="9.5" refY="5" markerWidth="7" markerHeight="7" orient="auto-start-reverse"><path class="mk f-mech" d="M0,0 L10,5 L0,10 z"/></marker><marker id="m-tech_en-f-rf" viewBox="0 0 10 10" refX="9.5" refY="5" markerWidth="7" markerHeight="7" orient="auto-start-reverse"><path class="mk f-rf" d="M0,0 L10,5 L0,10 z"/></marker></defs><g transform="translate(80,0)"><rect class="bnd" x="170" y="100" width="1060" height="725" rx="10"/><text class="bnd-t" x="182" y="815">DELIVERY DRONE</text><rect class="grp" x="190" y="135" width="370" height="155" rx="6"/><text class="grp-t" x="200" y="150">Perception</text><rect class="grp" x="600" y="135" width="610" height="95" rx="6"/><text class="grp-t" x="905" y="150">Communication</text><rect class="grp" x="190" y="340" width="170" height="310" rx="6"/><text class="grp-t" x="200" y="355">Energy</text><rect class="grp" x="400" y="340" width="520" height="160" rx="6"/><text class="grp-t" x="560" y="355">Avionics</text><rect class="grp" x="980" y="340" width="230" height="310" rx="6"/><text class="grp-t" x="990" y="355">Payload</text><rect class="grp" x="400" y="555" width="500" height="95" rx="6"/><text class="grp-t" x="560" y="570">Propulsion</text><rect class="grp" x="190" y="700" width="370" height="100" rx="6"/><text class="grp-t" x="200" y="715">Structure</text><rect class="grp" x="900" y="700" width="310" height="100" rx="6"/><text class="grp-t" x="910" y="715">Safety</text><polyline class="e f-rf" points="100,64 100,250 210,250" marker-end="url(#m-tech_en-f-rf)"/><polyline class="e f-rf" points="285,64 285,163" marker-end="url(#m-tech_en-f-rf)"/><polyline class="e f-data" points="690,64 690,163" marker-end="url(#m-tech_en-f-data)" marker-start="url(#m-tech_en-f-data)"/><polyline class="e f-data" points="870,64 870,163" marker-end="url(#m-tech_en-f-data)" marker-start="url(#m-tech_en-f-data)"/><polyline class="e f-rf" points="1050,163 1050,64" marker-end="url(#m-tech_en-f-rf)"/><polyline class="e f-data" points="85,310 440,310 440,395" marker-end="url(#m-tech_en-f-data)" marker-start="url(#m-tech_en-f-data)"/><polyline class="e f-elec" points="85,392 200,392" marker-end="url(#m-tech_en-f-elec)"/><polyline class="e f-mech" points="1260,460 1180,460" marker-end="url(#m-tech_en-f-mech)"/><polyline class="e f-mech" points="1180,530 1260,530" marker-end="url(#m-tech_en-f-mech)"/><polyline class="e f-rf" points="1260,610 1180,610" marker-end="url(#m-tech_en-f-rf)"/><polyline class="e f-mech" points="825,632 825,856" marker-end="url(#m-tech_en-f-mech)"/><polyline class="e f-rf" points="1135,782 1135,880 1260,880" marker-end="url(#m-tech_en-f-rf)"/><polyline class="e f-data" points="540,290 540,325 710,325 710,395" marker-end="url(#m-tech_en-f-data)"/><polyline class="e f-data" points="755,207 755,395" marker-end="url(#m-tech_en-f-data)" marker-start="url(#m-tech_en-f-data)"/><polyline class="e f-data" points="870,207 870,395" marker-end="url(#m-tech_en-f-data)" marker-start="url(#m-tech_en-f-data)"/><polyline class="e f-data" points="895,410 945,410 945,315 1050,315 1050,207" marker-end="url(#m-tech_en-f-data)"/><polyline class="e f-data" points="625,430 695,430" marker-end="url(#m-tech_en-f-data)" marker-start="url(#m-tech_en-f-data)"/><polyline class="e f-data" points="350,455 425,455" marker-end="url(#m-tech_en-f-data)"/><polyline class="e f-data" points="475,465 475,588" marker-end="url(#m-tech_en-f-data)"/><polyline class="e f-data" points="895,455 980,455" marker-end="url(#m-tech_en-f-data)" marker-start="url(#m-tech_en-f-data)"/><polyline class="e f-data" points="870,465 870,527 955,527 955,700" marker-end="url(#m-tech_en-f-data)"/><polyline class="e f-elec" points="275,414 275,438" marker-end="url(#m-tech_en-f-elec)"/><polyline class="e f-elec" points="275,482 275,508" marker-end="url(#m-tech_en-f-elec)" marker-start="url(#m-tech_en-f-elec)"/><polyline class="e f-elec" points="275,552 275,588" marker-end="url(#m-tech_en-f-elec)"/><polyline class="e f-elec" points="350,610 410,610" marker-end="url(#m-tech_en-f-elec)"/><polyline class="e f-elec" points="540,610 585,610" marker-end="url(#m-tech_en-f-elec)"/><polyline class="e f-mech" points="715,610 760,610" marker-end="url(#m-tech_en-f-mech)"/><polyline class="e f-mech" points="650,632 650,760 560,760" marker-end="url(#m-tech_en-f-mech)"/><polyline class="e f-mech" points="360,760 390,760" marker-end="url(#m-tech_en-f-mech)"/><polyline class="e f-mech" points="1095,438 1095,414" marker-end="url(#m-tech_en-f-mech)"/><polyline class="e f-mech" points="1095,482 1095,508" marker-end="url(#m-tech_en-f-mech)"/><rect class="n cmp" x="210.0" y="163.0" width="150" height="44" rx="6"/><text x="285" y="185.0" font-size="12" text-anchor="middle" dominant-baseline="central" class=""><tspan x="285" dy="0" class="">GNSS receiver</tspan></text><rect class="n cmp" x="390.0" y="163.0" width="150" height="44" rx="6"/><text x="465" y="185.0" font-size="12" text-anchor="middle" dominant-baseline="central" class=""><tspan x="465" dy="0" class="">Stereo cameras</tspan></text><rect class="n cmp" x="210.0" y="228.0" width="150" height="44" rx="6"/><text x="285" y="250.0" font-size="12" text-anchor="middle" dominant-baseline="central" class=""><tspan x="285" dy="0" class="">LiDAR</tspan></text><rect class="n cmp" x="390.0" y="228.0" width="150" height="44" rx="6"/><text x="465" y="250.0" font-size="12" text-anchor="middle" dominant-baseline="central" class=""><tspan x="465" dy="0" class="">Ultrasonic sensors</tspan></text><rect class="n cmp" x="615.0" y="163.0" width="150" height="44" rx="6"/><text x="690" y="177.32" font-size="12" text-anchor="middle" dominant-baseline="central" class=""><tspan x="690" dy="0" class="t1">4G/5G modem</tspan><tspan x="690" dy="15.36" class="t2">+ antenna</tspan></text><rect class="n cmp" x="795.0" y="163.0" width="150" height="44" rx="6"/><text x="870" y="177.32" font-size="12" text-anchor="middle" dominant-baseline="central" class=""><tspan x="870" dy="0" class="t1">Backup C2</tspan><tspan x="870" dy="15.36" class="t2">radio</tspan></text><rect class="n cmp" x="975.0" y="163.0" width="150" height="44" rx="6"/><text x="1050" y="177.32" font-size="12" text-anchor="middle" dominant-baseline="central" class=""><tspan x="1050" dy="0" class="t1">Remote ID</tspan><tspan x="1050" dy="15.36" class="t2">module</tspan></text><rect class="n cmp" x="200.0" y="370.0" width="150" height="44" rx="6"/><text x="275" y="384.32" font-size="12" text-anchor="middle" dominant-baseline="central" class=""><tspan x="275" dy="0" class="t1">Charging</tspan><tspan x="275" dy="15.36" class="t2">connector</tspan></text><rect class="n cmp" x="200.0" y="438.0" width="150" height="44" rx="6"/><text x="275" y="452.32" font-size="12" text-anchor="middle" dominant-baseline="central" class=""><tspan x="275" dy="0" class="t1">BMS (battery</tspan><tspan x="275" dy="15.36" class="t2">management)</tspan></text><rect class="n cmp" x="200.0" y="508.0" width="150" height="44" rx="6"/><text x="275" y="530.0" font-size="12" text-anchor="middle" dominant-baseline="central" class=""><tspan x="275" dy="0" class="">Li-ion battery</tspan></text><rect class="n cmp" x="200.0" y="588.0" width="150" height="44" rx="6"/><text x="275" y="602.32" font-size="12" text-anchor="middle" dominant-baseline="central" class=""><tspan x="275" dy="0" class="t1">Power distribution</tspan><tspan x="275" dy="15.36" class="t2">board</tspan></text><rect class="n cmp" x="425.0" y="395.0" width="200" height="70" rx="6"/><text x="525" y="414.64" font-size="12" text-anchor="middle" dominant-baseline="central" class=""><tspan x="525" dy="0" class="t1">Flight controller</tspan><tspan x="525" dy="15.36" class="t2">autopilot + firmware</tspan><tspan x="525" dy="15.36" class="t2">IMU, barometer, compass</tspan></text><rect class="n cmp" x="695.0" y="395.0" width="200" height="70" rx="6"/><text x="795" y="414.64" font-size="12" text-anchor="middle" dominant-baseline="central" class=""><tspan x="795" dy="0" class="t1">Mission computer</tspan><tspan x="795" dy="15.36" class="t2">OS + mission, navigation,</tspan><tspan x="795" dy="15.36" class="t2">avoidance software</tspan></text><rect class="n cmp" x="1010.0" y="370.0" width="170" height="44" rx="6"/><text x="1095" y="392.0" font-size="12" text-anchor="middle" dominant-baseline="central" class=""><tspan x="1095" dy="0" class="">Load cell (mass)</tspan></text><rect class="n cmp" x="1010.0" y="438.0" width="170" height="44" rx="6"/><text x="1095" y="452.32" font-size="12" text-anchor="middle" dominant-baseline="central" class=""><tspan x="1095" dy="0" class="t1">Package bay</tspan><tspan x="1095" dy="15.36" class="t2">+ lock</tspan></text><rect class="n cmp" x="1010.0" y="508.0" width="170" height="44" rx="6"/><text x="1095" y="530.0" font-size="12" text-anchor="middle" dominant-baseline="central" class=""><tspan x="1095" dy="0" class="">Winch + tether</tspan></text><rect class="n cmp" x="1010.0" y="588.0" width="170" height="44" rx="6"/><text x="1095" y="610.0" font-size="12" text-anchor="middle" dominant-baseline="central" class=""><tspan x="1095" dy="0" class="">Drop-zone camera</tspan></text><rect class="n cmp" x="410.0" y="588.0" width="130" height="44" rx="6"/><text x="475" y="602.32" font-size="12" text-anchor="middle" dominant-baseline="central" class=""><tspan x="475" dy="0" class="t1">Speed controllers</tspan><tspan x="475" dy="15.36" class="t2">(ESC) ×4</tspan></text><rect class="n cmp" x="585.0" y="588.0" width="130" height="44" rx="6"/><text x="650" y="602.32" font-size="12" text-anchor="middle" dominant-baseline="central" class=""><tspan x="650" dy="0" class="t1">Brushless</tspan><tspan x="650" dy="15.36" class="t2">motors ×4</tspan></text><rect class="n cmp" x="760.0" y="588.0" width="130" height="44" rx="6"/><text x="825" y="610.0" font-size="12" text-anchor="middle" dominant-baseline="central" class=""><tspan x="825" dy="0" class="">Propellers ×4</tspan></text><rect class="n cmp" x="210.0" y="738.0" width="150" height="44" rx="6"/><text x="285" y="752.32" font-size="12" text-anchor="middle" dominant-baseline="central" class=""><tspan x="285" dy="0" class="t1">Carbon frame</tspan><tspan x="285" dy="15.36" class="t2">+ arms</tspan></text><rect class="n cmp" x="390.0" y="738.0" width="150" height="44" rx="6"/><text x="465" y="760.0" font-size="12" text-anchor="middle" dominant-baseline="central" class=""><tspan x="465" dy="0" class="">Landing gear</tspan></text><rect class="n cmp" x="915.0" y="738.0" width="140" height="44" rx="6"/><text x="985" y="760.0" font-size="12" text-anchor="middle" dominant-baseline="central" class=""><tspan x="985" dy="0" class="">Parachute</tspan></text><rect class="n cmp" x="1065.0" y="738.0" width="140" height="44" rx="6"/><text x="1135" y="752.32" font-size="12" text-anchor="middle" dominant-baseline="central" class=""><tspan x="1135" dy="0" class="t1">Lights</tspan><tspan x="1135" dy="15.36" class="t2">+ speaker</tspan></text><rect class="n ext" x="25.0" y="16.0" width="150" height="48" rx="6"/><text x="100" y="32.32" font-size="12" text-anchor="middle" dominant-baseline="central" class="t-ext"><tspan x="100" dy="0" class="t1">Urban environment</tspan><tspan x="100" dy="15.36" class="t2">(obstacles)</tspan></text><rect class="n ext" x="210.0" y="16.0" width="150" height="48" rx="6"/><text x="285" y="40.0" font-size="12" text-anchor="middle" dominant-baseline="central" class="t-ext"><tspan x="285" dy="0" class="">GNSS constellation</tspan></text><rect class="n ext" x="615.0" y="16.0" width="150" height="48" rx="6"/><text x="690" y="40.0" font-size="12" text-anchor="middle" dominant-baseline="central" class="t-ext"><tspan x="690" dy="0" class="">4G/5G network</tspan></text><rect class="n ext" x="795.0" y="16.0" width="150" height="48" rx="6"/><text x="870" y="32.32" font-size="12" text-anchor="middle" dominant-baseline="central" class="t-ext"><tspan x="870" dy="0" class="t1">Remote supervision</tspan><tspan x="870" dy="15.36" class="t2">operator</tspan></text><rect class="n ext" x="975.0" y="16.0" width="150" height="48" rx="6"/><text x="1050" y="32.32" font-size="12" text-anchor="middle" dominant-baseline="central" class="t-ext"><tspan x="1050" dy="0" class="t1">Remote ID receivers</tspan><tspan x="1050" dy="15.36" class="t2">(authorities)</tspan></text><rect class="n ext" x="-65.0" y="286.0" width="150" height="48" rx="6"/><text x="10" y="302.32" font-size="12" text-anchor="middle" dominant-baseline="central" class="t-ext"><tspan x="10" dy="0" class="t1">Maintenance</tspan><tspan x="10" dy="15.36" class="t2">operator</tspan></text><rect class="n ext" x="-65.0" y="368.0" width="150" height="48" rx="6"/><text x="10" y="384.32" font-size="12" text-anchor="middle" dominant-baseline="central" class="t-ext"><tspan x="10" dy="0" class="t1">Charging</tspan><tspan x="10" dy="15.36" class="t2">station</tspan></text><rect class="n ext" x="1260.0" y="436.0" width="150" height="48" rx="6"/><text x="1335" y="460.0" font-size="12" text-anchor="middle" dominant-baseline="central" class="t-ext"><tspan x="1335" dy="0" class="">Warehouse</tspan></text><rect class="n ext" x="1260.0" y="506.0" width="150" height="48" rx="6"/><text x="1335" y="530.0" font-size="12" text-anchor="middle" dominant-baseline="central" class="t-ext"><tspan x="1335" dy="0" class="">Recipient</tspan></text><rect class="n ext" x="1260.0" y="586.0" width="150" height="48" rx="6"/><text x="1335" y="602.32" font-size="12" text-anchor="middle" dominant-baseline="central" class="t-ext"><tspan x="1335" dy="0" class="t1">Recipient&#x27;s</tspan><tspan x="1335" dy="15.36" class="t2">smartphone</tspan></text><rect class="n ext" x="1260.0" y="856.0" width="150" height="48" rx="6"/><text x="1335" y="872.32" font-size="12" text-anchor="middle" dominant-baseline="central" class="t-ext"><tspan x="1335" dy="0" class="t1">Third parties /</tspan><tspan x="1335" dy="15.36" class="t2">residents</tspan></text><rect class="n ext" x="750.0" y="856.0" width="150" height="48" rx="6"/><text x="825" y="880.0" font-size="12" text-anchor="middle" dominant-baseline="central" class="t-ext"><tspan x="825" dy="0" class="">Atmosphere (air)</tspan></text><rect class="lbg" x="57.779999999999994" y="142.5" width="84.44000000000001" height="29.0" rx="3"/><text x="100" y="150.75" font-size="10.5" text-anchor="middle" dominant-baseline="central" class="lt"><tspan x="100" dy="0" class="">Light, echoes</tspan><tspan x="100" dy="12.5" class="">(obstacles)</tspan></text><rect class="lbg" x="248.66" y="73.75" width="72.68" height="16.5" rx="3"/><text x="285" y="82.0" font-size="10.5" text-anchor="middle" dominant-baseline="central" class="lt"><tspan x="285" dy="0" class="">GNSS signal</tspan></text><rect class="lbg" x="630.14" y="73.75" width="119.72000000000001" height="16.5" rx="3"/><text x="690" y="82.0" font-size="10.5" text-anchor="middle" dominant-baseline="central" class="lt"><tspan x="690" dy="0" class="">Telemetry, commands</tspan></text><rect class="lbg" x="833.66" y="73.75" width="72.68" height="16.5" rx="3"/><text x="870" y="82.0" font-size="10.5" text-anchor="middle" dominant-baseline="central" class="lt"><tspan x="870" dy="0" class="">C2 commands</tspan></text><rect class="lbg" x="1004.84" y="73.75" width="90.32000000000001" height="16.5" rx="3"/><text x="1050" y="82.0" font-size="10.5" text-anchor="middle" dominant-baseline="central" class="lt"><tspan x="1050" dy="0" class="">Identification</tspan></text><rect class="lbg" x="199.2" y="301.75" width="125.60000000000001" height="16.5" rx="3"/><text x="262" y="310.0" font-size="10.5" text-anchor="middle" dominant-baseline="central" class="lt"><tspan x="262" dy="0" class="">Flight logs, updates</tspan></text><rect class="lbg" x="106.16" y="383.75" width="72.68" height="16.5" rx="3"/><text x="142.5" y="392.0" font-size="10.5" text-anchor="middle" dominant-baseline="central" class="lt"><tspan x="142.5" dy="0" class="">Electricity</tspan></text><rect class="lbg" x="1195.42" y="451.75" width="49.160000000000004" height="16.5" rx="3"/><text x="1220.0" y="460.0" font-size="10.5" text-anchor="middle" dominant-baseline="central" class="lt"><tspan x="1220.0" dy="0" class="">Package</tspan></text><rect class="lbg" x="1166.02" y="521.75" width="107.96000000000001" height="16.5" rx="3"/><text x="1220.0" y="530.0" font-size="10.5" text-anchor="middle" dominant-baseline="central" class="lt"><tspan x="1220.0" dy="0" class="">Delivered package</tspan></text><rect class="lbg" x="1174.84" y="601.75" width="90.32000000000001" height="16.5" rx="3"/><text x="1220.0" y="610.0" font-size="10.5" text-anchor="middle" dominant-baseline="central" class="lt"><tspan x="1220.0" dy="0" class="">Pickup QR code</tspan></text><rect class="lbg" x="803.36" y="736.75" width="43.28" height="16.5" rx="3"/><text x="825" y="745.0" font-size="10.5" text-anchor="middle" dominant-baseline="central" class="lt"><tspan x="825" dy="0" class="">Thrust</tspan></text><rect class="lbg" x="1157.72" y="871.75" width="78.56" height="16.5" rx="3"/><text x="1197" y="880.0" font-size="10.5" text-anchor="middle" dominant-baseline="central" class="lt"><tspan x="1197" dy="0" class="">Light, sound</tspan></text><rect class="lbg" x="571.02" y="310.5" width="107.96000000000001" height="29.0" rx="3"/><text x="625" y="318.75" font-size="10.5" text-anchor="middle" dominant-baseline="central" class="lt"><tspan x="625" dy="0" class="">Position, images,</tspan><tspan x="625" dy="12.5" class="">distances</tspan></text><rect class="lbg" x="724.54" y="275.5" width="60.92" height="29.0" rx="3"/><text x="755" y="283.75" font-size="10.5" text-anchor="middle" dominant-baseline="central" class="lt"><tspan x="755" dy="0" class="">Mission,</tspan><tspan x="755" dy="12.5" class="">telemetry</tspan></text><rect class="lbg" x="839.54" y="281.75" width="60.92" height="16.5" rx="3"/><text x="870" y="290.0" font-size="10.5" text-anchor="middle" dominant-baseline="central" class="lt"><tspan x="870" dy="0" class="">Backup C2</tspan></text><rect class="lbg" x="958.72" y="306.75" width="78.56" height="16.5" rx="3"/><text x="998" y="315.0" font-size="10.5" text-anchor="middle" dominant-baseline="central" class="lt"><tspan x="998" dy="0" class="">Position, ID</tspan></text><rect class="lbg" x="626.6" y="415.5" width="66.80000000000001" height="29.0" rx="3"/><text x="660.0" y="423.75" font-size="10.5" text-anchor="middle" dominant-baseline="central" class="lt"><tspan x="660.0" dy="0" class="">Setpoints,</tspan><tspan x="660.0" dy="12.5" class="">status</tspan></text><rect class="lbg" x="362.92" y="440.5" width="49.160000000000004" height="29.0" rx="3"/><text x="387.5" y="448.75" font-size="10.5" text-anchor="middle" dominant-baseline="central" class="lt"><tspan x="387.5" dy="0" class="">Battery</tspan><tspan x="387.5" dy="12.5" class="">status</tspan></text><rect class="lbg" x="447.48" y="512.5" width="55.040000000000006" height="29.0" rx="3"/><text x="475" y="520.75" font-size="10.5" text-anchor="middle" dominant-baseline="central" class="lt"><tspan x="475" dy="0" class="">Motor</tspan><tspan x="475" dy="12.5" class="">commands</tspan></text><rect class="lbg" x="912.48" y="440.5" width="55.040000000000006" height="29.0" rx="3"/><text x="940" y="448.75" font-size="10.5" text-anchor="middle" dominant-baseline="central" class="lt"><tspan x="940" dy="0" class="">Release,</tspan><tspan x="940" dy="12.5" class="">measures</tspan></text><rect class="lbg" x="921.6" y="597.5" width="66.80000000000001" height="29.0" rx="3"/><text x="955" y="605.75" font-size="10.5" text-anchor="middle" dominant-baseline="central" class="lt"><tspan x="955" dy="0" class="">Trigger,</tspan><tspan x="955" dy="12.5" class="">signalling</tspan></text><rect class="lbg" x="276.65999999999997" y="417.75" width="72.68" height="16.5" rx="3"/><text x="313" y="426.0" font-size="10.5" text-anchor="middle" dominant-baseline="central" class="lt"><tspan x="313" dy="0" class="">Electricity</tspan></text><rect class="lbg" x="276.65999999999997" y="486.75" width="72.68" height="16.5" rx="3"/><text x="313" y="495.0" font-size="10.5" text-anchor="middle" dominant-baseline="central" class="lt"><tspan x="313" dy="0" class="">Electricity</tspan></text><rect class="lbg" x="276.65999999999997" y="561.75" width="72.68" height="16.5" rx="3"/><text x="313" y="570.0" font-size="10.5" text-anchor="middle" dominant-baseline="central" class="lt"><tspan x="313" dy="0" class="">Electricity</tspan></text><rect class="lbg" x="361.3" y="589.75" width="37.400000000000006" height="16.5" rx="3"/><text x="380" y="598.0" font-size="10.5" text-anchor="middle" dominant-baseline="central" class="lt"><tspan x="380" dy="0" class="">Power</tspan></text><rect class="lbg" x="543.3" y="589.75" width="37.400000000000006" height="16.5" rx="3"/><text x="562" y="598.0" font-size="10.5" text-anchor="middle" dominant-baseline="central" class="lt"><tspan x="562" dy="0" class="">Power</tspan></text><rect class="lbg" x="715.36" y="589.75" width="43.28" height="16.5" rx="3"/><text x="737" y="598.0" font-size="10.5" text-anchor="middle" dominant-baseline="central" class="lt"><tspan x="737" dy="0" class="">Torque</tspan></text><rect class="lbg" x="616.6" y="675.5" width="66.80000000000001" height="29.0" rx="3"/><text x="650" y="683.75" font-size="10.5" text-anchor="middle" dominant-baseline="central" class="lt"><tspan x="650" dy="0" class="">Mechanical</tspan><tspan x="650" dy="12.5" class="">loads</tspan></text><rect class="lbg" x="356.3" y="739.75" width="37.400000000000006" height="16.5" rx="3"/><text x="375" y="748.0" font-size="10.5" text-anchor="middle" dominant-baseline="central" class="lt"><tspan x="375" dy="0" class="">Loads</tspan></text><rect class="lbg" x="1105.36" y="417.75" width="43.28" height="16.5" rx="3"/><text x="1127" y="426.0" font-size="10.5" text-anchor="middle" dominant-baseline="central" class="lt"><tspan x="1127" dy="0" class="">Weight</tspan></text><rect class="lbg" x="1105.42" y="486.75" width="49.160000000000004" height="16.5" rx="3"/><text x="1130" y="495.0" font-size="10.5" text-anchor="middle" dominant-baseline="central" class="lt"><tspan x="1130" dy="0" class="">Package</tspan></text><text class="note" x="-60" y="905">Not shown: low-voltage supply of every piece of equipment by the power distribution board.</text></g></svg>